<svg width="44" height="44" viewBox="0 0 44 44" fill="none" xmlns="http://www.w3.org/2000/svg">
<rect width="44" height="44" rx="6" fill="#EFF2FC"/>
<path d="M29.9942 18.0026C29.8025 17.2876 29.24 16.7234 28.5259 16.5309C27.2209 16.1726 22 16.1668 22 16.1668C22 16.1668 16.78 16.1609 15.4742 16.5034C14.7742 16.6943 14.1959 17.2709 14.0025 17.9851C13.6584 19.2901 13.655 21.9968 13.655 21.9968C13.655 21.9968 13.6517 24.7168 13.9934 26.0084C14.185 26.7226 14.7475 27.2868 15.4625 27.4793C16.7809 27.8376 21.9875 27.8434 21.9875 27.8434C21.9875 27.8434 27.2084 27.8493 28.5134 27.5076C29.2267 27.3159 29.7917 26.7526 29.9859 26.0384C30.3309 24.7343 30.3334 22.0284 30.3334 22.0284C30.3334 22.0284 30.35 19.3076 29.9942 18.0026ZM20.33 24.5043L20.3342 19.5043L24.6734 22.0084L20.33 24.5043Z" fill="#33354D"/>
</svg>
