<svg width="44" height="44" viewBox="0 0 44 44" fill="none" xmlns="http://www.w3.org/2000/svg">
<rect width="44" height="44" rx="6" fill="#EFF2FC"/>
<path d="M28.3609 18.6641C28.3717 18.81 28.3717 18.955 28.3717 19.1C28.3717 23.5375 24.9942 28.6508 18.8217 28.6508C16.9201 28.6508 15.1534 28.1 13.6667 27.1433C13.9367 27.1741 14.1967 27.185 14.4776 27.185C16.0467 27.185 17.4909 26.655 18.6451 25.7508C17.1692 25.72 15.9326 24.7533 15.5059 23.4233C15.7134 23.4541 15.9217 23.475 16.1401 23.475C16.4409 23.475 16.7434 23.4333 17.0242 23.3608C15.4851 23.0491 14.3326 21.6983 14.3326 20.0666V20.025C14.7801 20.2741 15.2992 20.43 15.8492 20.4508C14.9451 19.8491 14.3526 18.82 14.3526 17.6558C14.3526 17.0325 14.5184 16.4608 14.8092 15.9625C16.4617 17.9983 18.9459 19.3291 21.7309 19.475C21.6792 19.225 21.6476 18.9658 21.6476 18.7058C21.6476 16.8558 23.1442 15.3491 25.0042 15.3491C25.9709 15.3491 26.8434 15.7541 27.4567 16.4091C28.2151 16.2633 28.9417 15.9825 29.5867 15.5983C29.3376 16.3775 28.8067 17.0325 28.1109 17.4483C28.7867 17.375 29.4417 17.1883 30.0434 16.9283C29.5867 17.5933 29.0159 18.1858 28.3609 18.6641Z" fill="#33354D"/>
</svg>
